<svg width="22" height="14" viewBox="0 0 22 14" fill="none" xmlns="http://www.w3.org/2000/svg">
<path d="M20.4599 5.94171L19.8902 3.66286C20.046 3.62977 20.1628 3.49158 20.1628 3.32603V2.9586C20.1628 2.16084 19.5138 1.51184 18.7161 1.51184H16.1211V0.75396C16.1211 0.361397 15.8018 0.0420532 15.4092 0.0420532H2.18161C1.78905 0.0420532 1.4697 0.361397 1.4697 0.75396V7.00033C1.4697 7.19055 1.62392 7.34481 1.81418 7.34481C2.00441 7.34481 2.15866 7.19059 2.15866 7.00033V0.75396C2.15866 0.741284 2.16893 0.731014 2.18161 0.731014H15.4092C15.4218 0.731014 15.4321 0.741284 15.4321 0.75396V7.00041C15.4321 7.19064 15.5863 7.34489 15.7766 7.34489C15.9668 7.34489 16.1211 7.19068 16.1211 7.00041V6.60991H20.1846C20.1849 6.60991 20.1852 6.61 20.1855 6.61C20.1858 6.61 20.1861 6.60996 20.1864 6.60996C20.6864 6.6103 21.111 6.9385 21.2569 7.39074H20.1857C19.9955 7.39074 19.8413 7.54496 19.8413 7.73522V8.47007C19.8413 9.06523 20.3254 9.54941 20.9206 9.54941H21.311V11.065H20.4103C20.1144 10.2107 19.3022 9.5953 18.3486 9.5953C17.3949 9.5953 16.5827 10.2107 16.2868 11.065H16.121V8.47003C16.121 8.27981 15.9668 8.12555 15.7765 8.12555C15.5863 8.12555 15.432 8.27977 15.432 8.47003V11.065H8.28511C7.98922 10.2106 7.17707 9.59521 6.22338 9.59521C5.26969 9.59521 4.45749 10.2106 4.16165 11.065H2.18161C2.16893 11.065 2.15866 11.0547 2.15866 11.042V10.2842H3.65136C3.84158 10.2842 3.99584 10.13 3.99584 9.93969C3.99584 9.74943 3.84162 9.59521 3.65136 9.59521H0.34448C0.154258 9.59521 0 9.74943 0 9.93969C0 10.13 0.154215 10.2842 0.34448 10.2842H1.46975V11.042C1.46975 11.4346 1.78909 11.7539 2.18165 11.7539H4.04237C4.04229 11.7616 4.04177 11.7692 4.04177 11.7769C4.04177 12.9798 5.02047 13.9585 6.22338 13.9585C7.42629 13.9585 8.40499 12.9798 8.40499 11.7769C8.40499 11.7691 8.40447 11.7616 8.40439 11.7539H16.1676C16.1675 11.7616 16.1669 11.7692 16.1669 11.7769C16.1669 12.9798 17.1456 13.9585 18.3486 13.9585C19.5515 13.9585 20.5302 12.9798 20.5302 11.7769C20.5302 11.7691 20.5297 11.7616 20.5296 11.7539H21.6555C21.8457 11.7539 22 11.5997 22 11.4094V7.73514C22 6.82798 21.3307 6.07427 20.4599 5.94171ZM16.1211 2.20076H18.7161C19.1339 2.20076 19.4739 2.54073 19.4739 2.9586V2.98155H16.1211V2.20076ZM16.1211 5.921V3.67046H19.182L19.7446 5.921H16.1211ZM6.22338 13.2696C5.40031 13.2696 4.73069 12.6001 4.73069 11.7769C4.73069 10.9538 5.40031 10.2843 6.22338 10.2843C7.04645 10.2843 7.71607 10.9538 7.71607 11.7769C7.71607 12.6001 7.04645 13.2696 6.22338 13.2696ZM18.3486 13.2696C17.5256 13.2696 16.856 12.6001 16.856 11.7769C16.856 10.9538 17.5256 10.2843 18.3486 10.2843C19.1717 10.2843 19.8413 10.9538 19.8413 11.7769C19.8413 12.6001 19.1717 13.2696 18.3486 13.2696ZM21.3111 8.86045H20.9207C20.7054 8.86045 20.5303 8.6853 20.5303 8.47003V8.07962H21.311V8.86045H21.3111Z" fill="white"/>
</svg>
